#!OML:ASF F:\VICON\USERDATA\INSTALL\rory3\rory3.ASF
:FULLY-SPECIFIED
:DEGREES
96
root 0.37617693747303477 17.561399868020448 43.80534243016057 -1.4622287466242265 -4.941716966646237 -6.937356157362274
lfemur -24.836407831420853 -3.6575385107645375 -11.748239233930232
ltibia 19.50998732582407
lfoot -4.8292335375452495 -2.0891883364988466
ltoes -13.513072557526943
rfemur 6.67902206587558 3.2196474117080425 33.15229424587514
rtibia 33.85652567460247
rfoot -10.899264740291764 -5.173920147206476
rtoes -2.3995852560026654
lowerback -1.0 2.182397091151907 5.2138970330480765
upperback -0.19085444611614966 3.6780200390541102 1.9375978573550359
thorax -5.78146797180263 1.7312754450961358 -1.7556358705909332
lowerneck -16.245625014751276 -3.5478473948590827 -1.8523954683605985
upperneck 19.68778643897659 -5.203829626923694 3.0749621714697453
head 8.878417930055278 -2.169614723255269 0.6273710736215385
lclavicle 1.531225142352125e-15 -1.6584447115767629e-16
lhumerus -35.48072792315184 9.139328354389141 79.77373656616403
lradius 21.741644913951287
lwrist 5.026562945419285
lhand -29.571253980501847 17.915267755217194
lfingers nan
lthumb -3.0043757804708084 47.45966942665492
rclavicle 1.6526657676994641e-15 -5.576066652935131e-17
rhumerus -24.89426157749726 -14.15619746624915 -80.82132487373622
rradius 32.25629186095425
rwrist -1.3356732718078956
rhand -18.641368420964696 -1.0
rfingers nan
rthumb 7.690543385964063 -6.347212811664908
97
root 0.4319953973607772 17.610076964579576 44.4048574050687 -2.358593605581486 -4.655035245709918 -6.1993478987207675
lfemur -24.439791703318477 -3.130758706044908 -13.524858615457774
ltibia 24.320284748265934
lfoot -4.191032685213292 -3.614730314285766
ltoes -10.514272641416749
rfemur 6.14072337471274 2.1555364269415254 31.753356526754832
rtibia 39.44080760379394
rfoot -7.330527999078507 -4.035019641981592
rtoes -0.7055810883447
lowerback -1.0 2.162537125284655 4.418588971444127
upperback -0.12796212648967806 3.5319333939839073 1.7722005814199422
thorax -5.8065678868870005 1.6721759688265678 -1.4616904819851333
lowerneck -16.098420087003884 -3.611946105283329 -1.9200123518766372
upperneck 19.776334051605005 -5.320179295778836 3.1641510320749133
head 8.890432390040704 -2.2186736134873026 0.6571842956429808
lclavicle 1.558098613080108e-15 -1.3830311443218959e-16
lhumerus -35.584989696614656 9.5545835052955 79.45002131368682
lradius 21.054628416204856
lwrist 4.42648734725158
lhand -29.481980548186865 17.85004408487646
lfingers nan
lthumb -2.900246580147288 47.45118177439849
rclavicle 1.6697862980383028e-15 -3.080949588574304e-17
rhumerus -24.850312571405524 -14.369802437198242 -80.8528733302443
rradius 31.909959438334404
rwrist -1.0353350116574744
rhand -18.597506955173127 -1.0
rfingers nan
rthumb 7.665678555650354 -6.42129427545191
98
root 0.4855415169039341 17.689995837893193 44.82810354043199 -3.1635933687807283 -4.043220253765658 -5.439966655035086
lfemur -23.106738502560255 -2.279808012317835 -15.42021397208718
ltibia 27.792019778502166
lfoot -3.751476621554866 -4.992352440452241
ltoes -10.09230566215014
rfemur 4.1430416420587 0.7088255272179504 30.049937434470944
rtibia 46.474921292983055
rfoot -1.7841369938372376 -3.159539980544703
rtoes 3.471121307528528
lowerback -1.0 2.0510286795193826 3.5568561727967385
upperback -0.04631777366278695 3.3351563232360286 1.5948607109662518
thorax -5.83950219465166 1.5946856745113818 -1.0799707937459415
lowerneck -15.992145706619063 -3.6425180759002425 -2.01702441191452
upperneck 19.861684875486485 -5.365997179576566 3.2309059192329626
head 8.911704641751408 -2.2433325168010225 0.6905995611700232
lclavicle 1.5789378451495745e-15 -1.1338106108332413e-16
lhumerus -35.530508200740215 9.727946252859782 79.26617273934198
lradius 20.617970927141968
lwrist 4.046916065628759
lhand -29.354072230759275 17.892574857769333
lfingers nan
lthumb -2.7357277841245606 47.58334454286496
rclavicle 1.6794745165130634e-15 -5.626751141063102e-18
rhumerus -25.07817690771844 -14.777481444045193 -80.76661337668475
rradius 31.38292862380666
rwrist -0.5736114976155977
rhand -18.540406178896543 -1.0
rfingers nan
rthumb 7.668227805115838 -6.562829146676534
99
root 0.5467263811109646 17.770235264429697 45.556064939758215 -3.794338847951817 -3.7698182508610576 -4.552612999925964
lfemur -20.976134070195275 -1.476283604604801 -17.379740713923994
ltibia 30.198264317163463
lfoot -4.2487466367095585 -5.2014164943159
ltoes -10.746659863128297
rfemur 0.7604161589854783 -0.7889164682359531 28.1511744528837
rtibia 54.31056516036911
rfoot 4.670844787382236 -3.2707510979778265
rtoes 11.306726294402871
lowerback -1.0 1.9531496946803864 2.620909475845104
upperback 0.03540680098681262 3.1255007252737386 1.402577496935287
thorax -5.901828810455519 1.5009607692350457 -0.6704626162356744
lowerneck -15.958288381555866 -3.6362331484308488 -2.1291277236855453
upperneck 19.92919549668504 -5.335244516670125 3.268591885846916
head 8.936937808498554 -2.24078842845081 0.7251761186071977
lclavicle 1.5342837515238245e-15 -1.3095257755697914e-16
lhumerus -35.303339837820346 9.649709243273884 79.22749298758443
lradius 20.46577140218192
lwrist 4.005889220100623
lhand -29.265532021101457 17.801018307438696
lfingers nan
lthumb -2.601967368078421 47.60041657471424
rclavicle 1.6161810264769048e-15 -2.9551458583742945e-17
rhumerus -25.501919162578602 -15.296618246227432 -80.58017862515963
rradius 30.78805945760893
rwrist -0.04339352560765386
rhand -18.475464414718104 -1.0
rfingers nan
rthumb 7.6997664307355045 -6.7201383494784785
